<?xml version="1.0" encoding="utf-8"?>
<!-- Generator: Adobe Illustrator 23.0.6, SVG Export Plug-In . SVG Version: 6.00 Build 0)  -->
<svg version="1.1" xmlns="http://www.w3.org/2000/svg" xmlns:xlink="http://www.w3.org/1999/xlink" x="0px" y="0px"
	 viewBox="0 0 160 71" style="enable-background:new 0 0 160 71;" xml:space="preserve">
<style type="text/css">
	.st0{fill:#45A8F7;}
	.st1{fill:#8032E9;}
	.st2{fill:#F94FD9;}
	.st3{display:none;}
	.st4{display:inline;fill:#45A8F7;}
	.st5{display:inline;fill:#5C24EC;}
	.st6{display:inline;fill:#8032E9;}
	.st7{display:inline;fill:#A442DD;}
	.st8{display:inline;fill:#F94FD9;}
	.st9{display:inline;fill:#957AE4;}
	.st10{display:inline;}
	.st11{fill:#5C24EC;}
	.st12{fill:#010203;}
	.text{fill:#575757}
</style>
<g id="New_Logo">
	<g id="Opaque">
		<circle class="st0" cx="124.5" cy="35.5" r="35"/>
		<circle class="st1" cx="84.5" cy="35.5" r="29"/>
		<circle class="st2" cx="48.5" cy="35.5" r="24"/>
		<circle class="st0" cx="19.5" cy="35.5" r="19"/>
	</g>
	<g id="Transparent_1_" class="st3">
		<path class="st4" d="M159.5,35.5c0,19.33-15.67,35-35,35c-9.69,0-18.46-3.94-24.8-10.3c8.28-5.1,13.8-14.25,13.8-24.7
			s-5.52-19.6-13.8-24.7c6.34-6.36,15.11-10.3,24.8-10.3C143.83,0.5,159.5,16.17,159.5,35.5z"/>
		<path class="st5" d="M113.5,35.5c0,10.45-5.52,19.6-13.8,24.7c-6.3-6.33-10.2-15.07-10.2-24.7s3.9-18.37,10.2-24.7
			C107.98,15.9,113.5,25.05,113.5,35.5z"/>
		<path class="st6" d="M89.5,35.5c0,9.63,3.9,18.37,10.2,24.7c-4.42,2.73-9.63,4.3-15.2,4.3c-8.63,0-16.37-3.76-21.68-9.74
			c5.87-4.38,9.68-11.38,9.68-19.26s-3.81-14.88-9.68-19.26C68.13,10.26,75.87,6.5,84.5,6.5c5.57,0,10.78,1.57,15.2,4.3
			C93.4,17.13,89.5,25.87,89.5,35.5z"/>
		<path class="st7" d="M72.5,35.5c0,7.88-3.81,14.88-9.68,19.26c-4.56-5.12-7.32-11.87-7.32-19.26s2.76-14.14,7.32-19.26
			C68.69,20.62,72.5,27.62,72.5,35.5z"/>
		<path class="st8" d="M55.5,35.5c0,7.39,2.76,14.14,7.32,19.26c-4,2.98-8.96,4.74-14.32,4.74c-7.28,0-13.8-3.24-18.2-8.37
			c4.96-3.43,8.2-9.15,8.2-15.63c0-6.48-3.24-12.2-8.2-15.63c4.4-5.13,10.92-8.37,18.2-8.37c5.36,0,10.32,1.76,14.32,4.74
			C58.26,21.36,55.5,28.11,55.5,35.5z"/>
		<path class="st9" d="M38.5,35.5c0,6.48-3.24,12.2-8.2,15.63c-3.61-4.2-5.8-9.66-5.8-15.63c0-5.97,2.19-11.43,5.8-15.63
			C35.26,23.3,38.5,29.02,38.5,35.5z"/>
		<path class="st4" d="M24.5,35.5c0,5.97,2.19,11.43,5.8,15.63c-3.06,2.12-6.79,3.37-10.8,3.37c-10.49,0-19-8.51-19-19
			s8.51-19,19-19c4.01,0,7.74,1.25,10.8,3.37C26.69,24.07,24.5,29.53,24.5,35.5z"/>
	</g>
</g>
<g id="Text">
	<g id="S.I.T.S." class="text">
		<rect id="Period_0_" x="33.79" y="41.37" width="5.2" height="5.2"/>
		<rect id="Period_1_" x="67.79" y="41.36" width="5.2" height="5.2"/>
		<rect id="Period_2_" x="108.79" y="41.36" width="5.2" height="5.2"/>
		<rect id="Period_3_" x="147.37" y="41.36" width="5.2" height="5.2"/>
		<g>
			<path d="M19.84,28.64c-0.63-0.51-1.65-0.77-3.06-0.77c-1.22,0-2.12,0.19-2.7,0.56c-0.59,0.37-0.88,0.96-0.88,1.78
				c0,0.55,0.22,1.03,0.67,1.44c0.45,0.41,1.27,0.77,2.46,1.09c1.6,0.43,3.02,0.82,4.27,1.18c1.25,0.36,2.3,0.81,3.17,1.34
				c0.86,0.53,1.52,1.22,1.97,2.05c0.45,0.83,0.67,1.93,0.67,3.3c0,1.07-0.21,2.02-0.64,2.85c-0.43,0.83-1.01,1.54-1.76,2.11
				c-0.75,0.58-1.64,1.01-2.69,1.31c-1.05,0.3-2.18,0.45-3.39,0.45c-3.35,0-5.82-0.61-7.42-1.84c-1.6-1.23-2.44-3.08-2.53-5.55h4.9
				c0.04,1.02,0.48,1.82,1.31,2.38s1.86,0.85,3.07,0.85c1.49,0,2.57-0.23,3.23-0.69s0.99-1.09,0.99-1.9c0-0.66-0.22-1.19-0.67-1.6
				c-0.45-0.41-1.31-0.78-2.59-1.12c-1.75-0.47-3.24-0.91-4.46-1.33c-1.23-0.42-2.23-0.9-3.01-1.44c-0.78-0.54-1.35-1.19-1.71-1.94
				C8.68,32.4,8.5,31.45,8.5,30.3c0-0.94,0.17-1.81,0.51-2.62c0.34-0.81,0.85-1.51,1.54-2.1c0.68-0.59,1.54-1.05,2.58-1.39
				s2.25-0.51,3.63-0.51c1.34,0,2.55,0.18,3.63,0.53c1.08,0.35,1.99,0.85,2.75,1.49c0.76,0.64,1.35,1.4,1.79,2.29
				s0.69,1.87,0.75,2.96h-4.8C20.82,29.92,20.47,29.15,19.84,28.64z"/>
			<path d="M50.79,24.43h5.18v22.14h-5.18V24.43z"/>
			<path d="M88.27,28.72h-6.53v-4.29h18.21v4.29h-6.53v17.85h-5.15V28.72z"/>
			<path d="M136.84,28.64c-0.63-0.51-1.65-0.77-3.06-0.77c-1.22,0-2.12,0.19-2.7,0.56c-0.59,0.37-0.88,0.96-0.88,1.78
				c0,0.55,0.22,1.03,0.67,1.44c0.45,0.41,1.27,0.77,2.46,1.09c1.6,0.43,3.02,0.82,4.27,1.18c1.25,0.36,2.3,0.81,3.17,1.34
				c0.86,0.53,1.52,1.22,1.97,2.05c0.45,0.83,0.67,1.93,0.67,3.3c0,1.07-0.21,2.02-0.64,2.85c-0.43,0.83-1.01,1.54-1.76,2.11
				c-0.75,0.58-1.64,1.01-2.69,1.31c-1.05,0.3-2.18,0.45-3.39,0.45c-3.35,0-5.82-0.61-7.42-1.84c-1.6-1.23-2.44-3.08-2.53-5.55h4.9
				c0.04,1.02,0.48,1.82,1.31,2.38s1.86,0.85,3.07,0.85c1.49,0,2.57-0.23,3.23-0.69s0.99-1.09,0.99-1.9c0-0.66-0.22-1.19-0.67-1.6
				c-0.45-0.41-1.31-0.78-2.59-1.12c-1.75-0.47-3.24-0.91-4.46-1.33c-1.23-0.42-2.23-0.9-3.01-1.44c-0.78-0.54-1.35-1.19-1.71-1.94
				c-0.36-0.75-0.54-1.7-0.54-2.85c0-0.94,0.17-1.81,0.51-2.62c0.34-0.81,0.85-1.51,1.54-2.1c0.68-0.59,1.54-1.05,2.58-1.39
				s2.25-0.51,3.63-0.51c1.34,0,2.55,0.18,3.63,0.53c1.08,0.35,1.99,0.85,2.75,1.49c0.76,0.64,1.35,1.4,1.79,2.29
				s0.69,1.87,0.75,2.96h-4.8C137.82,29.92,137.47,29.15,136.84,28.64z"/>
		</g>
	</g>
</g>
<g id="Original_Logo" class="st3">
	<g class="st10">
		<path class="st0" d="M99.74,10.61c7.4-7.01,16.09-10.59,26.38-10.3c15.98,0.45,30.22,12.48,33.17,28.2
			c3.26,17.36-5.95,34.08-22.58,39.92c-13.82,4.85-26.25,1.84-36.92-8.23c0.53-0.38,1.05-0.77,1.58-1.15
			c16.48-11.99,15.67-37.76-1.52-48.18C99.81,10.78,99.77,10.7,99.74,10.61z M119.69,41.32c-0.9,0.26-2.37-0.61-2.88,0.44
			c-0.61,1.24,0,2.68,0.74,3.9c1.49,2.46,3.85,3.66,6.52,4.29c4.44,1.04,8.55-0.72,10.13-4.26c2.02-4.52,0.97-8.63-2.92-11.55
			c-1.48-1.11-3.16-1.67-4.97-1.98c-1.35-0.23-2.57-0.75-2.56-2.42c0-1.13,0.6-1.98,1.7-2.23c1.47-0.33,2.98,0.01,3.4,1.54
			c0.41,1.49,1.28,1.51,2.39,1.49c0.8-0.01,1.6-0.08,2.39-0.04c1.29,0.07,1.79-0.5,1.85-1.79c0.13-2.92-1.59-5.71-4.42-6.8
			c-2.42-0.93-4.94-1.13-7.47-0.57c-3.76,0.83-6.68,4.85-6.55,8.91c0.13,4.16,2.57,6.89,6.83,7.65c1.14,0.21,2.26,0.5,3.25,1.14
			c1.18,0.75,1.54,1.86,1.35,3.19c-0.14,0.97-0.75,1.58-1.66,1.79c-1.29,0.3-2.78,0.12-3.27-1.07
			C122.73,40.99,121.24,41.41,119.69,41.32z M149.03,47.08c0.21-1.03,0.38-2.49-1.8-2.24c-1.32,0.15-3.44-0.64-3.08,1.95
			c0.16,1.15-1.38,3.25,1.51,3.28C148.91,50.09,148.91,50.15,149.03,47.08z"/>
		<path class="st2" d="M29.71,19.84c8.87-9.76,20.59-11.62,32.02-5.09c0.31,0.18,0.65,0.32,0.97,0.47c0.17,0.23,0.31,0.5,0.53,0.67
			c7.75,6.15,10.9,14.12,9.42,23.88c-0.26,1.7-0.87,3.35-1.32,5.02c-0.79,0.01-1.58-0.06-2.36,0.05c-0.71,0.1-1.96-0.08-1.83,0.95
			c0.19,1.44-1.21,3.25,0.81,4.34c-1.19,2.38-3.52,3.69-5.26,5.56c-3.24,1.78-6.52,3.45-10.25,3.96
			c-9.13,1.25-16.65-1.73-22.71-8.59c2.23-1.58,3.88-3.72,5.6-5.8c0,1.01,0.08,2.02-0.02,3.02c-0.15,1.44,0.42,1.96,1.82,1.79
			c0.71-0.09,1.44-0.01,2.16-0.02c0.43,0,0.95,0.02,0.92-0.59c-0.06-1.42,0.98-3.05,0.05-4.16c-0.81-0.97-2.43-0.51-3.71-0.32
			c-0.42,0.06-0.84,0.21-1.25,0.32c0.05-0.21,0.05-0.45,0.15-0.63C40.1,36.4,37.93,25.77,29.71,19.84z M57.59,34.47
			c0-2.37-0.01-5.85,0-9.33c0.01-4.24,0.01-4.24-4.26-4.31c-3.11-0.05-3.19-0.05-3.19,3.07c0,6.96,0.12,13.92,0.11,20.88
			c-0.01,5.77-0.06,5.73,5.7,5.41c1.32-0.07,1.71-0.46,1.64-1.79C57.36,44.14,57.14,39.86,57.59,34.47z"/>
		<path class="st1" d="M71.33,44.79c0.45-1.67,1.06-3.32,1.32-5.02c1.48-9.76-1.67-17.74-9.42-23.88c-0.22-0.17-0.35-0.44-0.53-0.67
			c8.83-9.35,23.82-12.63,37.04-4.6c0.03,0.08,0.07,0.17,0.1,0.25c-3.25,2.67-5.17,6.28-7.05,9.93c-4.13,0.01-8.25,0.07-12.38,0.02
			c-1.2-0.01-1.75,0.32-1.61,1.57c0.07,0.57,0,1.16,0,1.74c0,3.15,0,3.18,3.11,3.31c1.44,0.06,2.19,0.43,2.19,2.13
			c0.01,5.86,0.29,11.72,0.25,17.58c-0.01,2.08,0.12,3.04,2.68,2.84c3.92-0.3,3.94-0.06,4.08-3.85c0.59,1.37,1.22,2.73,1.77,4.12
			c1.49,3.79,4.31,6.7,6.52,10.02c-10.08,6.95-24.96,5.81-34.64-2.66c-0.71-0.62-1.37-1.29-2.05-1.93c1.73-1.87,4.06-3.17,5.26-5.56
			c0.5-0.03,1,0.01,1.48-0.09c0.82-0.18,2.31,0.57,2.36-0.53C71.87,47.97,73.06,46.17,71.33,44.79z"/>
		<path class="st0" d="M35.34,45.25c-1.72,2.07-3.37,4.22-5.6,5.8c-9.23,5.79-18.38,3.19-23.7-1.83
			c-7.04-6.64-7.99-17.49-2.21-25.12c5.85-7.72,16.37-9.81,24.74-4.91c0.38,0.22,0.76,0.43,1.14,0.64
			c8.22,5.93,10.39,16.56,5.75,24.83c-0.1,0.18-0.1,0.42-0.15,0.63L35.34,45.25z M11.64,41.35c-0.77,0-1.06,0-1.35,0
			c-2.55,0-2.67,0.12-2,2.54c0.99,3.56,3.75,5.13,7.02,6.01c4.09,1.1,8.33-0.47,10.05-3.63c2.28-4.19,1.64-8.17-1.81-11.41
			c-1.64-1.54-3.61-2.33-5.8-2.68c-1.37-0.22-2.55-0.77-2.53-2.44c0.02-1.23,0.61-2.08,1.88-2.29c1.54-0.25,2.7,0.33,3.38,1.75
			c0.2,0.42-0.07,1.16,0.64,1.21c1.79,0.12,4.04,0.82,5.23-0.37c1.14-1.14,0.6-3.29-0.26-4.89c-0.74-1.38-1.81-2.43-3.27-3.05
			c-2.62-1.11-5.33-1.34-8.07-0.62c-3.62,0.96-6.49,4.93-6.37,8.65c0.13,4.17,2.69,6.99,7.02,7.79c1.14,0.21,2.26,0.48,3.22,1.2
			c1.51,1.13,1.87,2.89,0.85,4.16c-0.98,1.21-3.58,1.34-4.39-0.15C14.1,41.31,12.75,41.28,11.64,41.35z"/>
		<path class="st11" d="M99.41,60.27c-2.21-3.31-5.03-6.23-6.52-10.02c-0.54-1.39-1.17-2.74-1.77-4.12
			c-0.12-5.4-0.19-10.81-0.4-16.21c-0.08-1.98,0.61-2.59,2.58-2.52c3.12,0.1,2.96,0.73,3.01-2.96c0-0.36-0.05-0.73,0.01-1.08
			c0.32-1.8-0.58-2.46-2.23-2.47c-0.43,0-0.86-0.07-1.29-0.11c1.87-3.65,3.8-7.26,7.05-9.93c17.19,10.42,18,36.19,1.52,48.18
			c-0.53,0.38-1.05,0.77-1.58,1.15C99.66,60.21,99.53,60.23,99.41,60.27z M108.09,47.19c0.24-1.19,0.26-2.56-2-2.38
			c-1.49,0.12-3.3-0.19-2.89,2.22c0.19,1.14-1.08,3.07,1.62,3.04C108.02,50.04,108.02,50.14,108.09,47.19z"/>
		<path class="st12" d="M119.69,41.32c1.55,0.09,3.04-0.33,3.85,1.63c0.49,1.19,1.98,1.37,3.27,1.07c0.91-0.21,1.52-0.82,1.66-1.79
			c0.19-1.33-0.18-2.44-1.35-3.19c-0.99-0.64-2.11-0.93-3.25-1.14c-4.26-0.77-6.69-3.49-6.83-7.65c-0.13-4.06,2.79-8.08,6.55-8.91
			c2.53-0.56,5.05-0.36,7.47,0.57c2.83,1.09,4.55,3.88,4.42,6.8c-0.06,1.29-0.56,1.85-1.85,1.79c-0.79-0.04-1.59,0.03-2.39,0.04
			c-1.11,0.02-1.99,0-2.39-1.49c-0.42-1.53-1.92-1.87-3.4-1.54c-1.1,0.25-1.7,1.11-1.7,2.23c-0.01,1.67,1.21,2.19,2.56,2.42
			c1.81,0.31,3.48,0.87,4.97,1.98c3.89,2.92,4.94,7.04,2.92,11.55c-1.59,3.54-5.69,5.31-10.13,4.26c-2.67-0.63-5.03-1.83-6.52-4.29
			c-0.74-1.22-1.35-2.66-0.74-3.9C117.32,40.71,118.79,41.58,119.69,41.32z"/>
		<path class="st12" d="M149.03,47.08c-0.12,3.07-0.12,3.01-3.37,2.99c-2.89-0.03-1.35-2.13-1.51-3.28
			c-0.36-2.59,1.76-1.8,3.08-1.95C149.42,44.59,149.24,46.05,149.03,47.08z"/>
		<path class="st12" d="M57.59,34.47c-0.46,5.39-0.24,9.67-0.01,13.94c0.07,1.32-0.32,1.72-1.64,1.79c-5.75,0.32-5.7,0.36-5.7-5.41
			c0.01-6.96-0.11-13.92-0.11-20.88c0-3.12,0.07-3.12,3.19-3.07c4.27,0.07,4.27,0.07,4.26,4.31C57.59,28.62,57.59,32.1,57.59,34.47z
			"/>
		<path class="st12" d="M35.31,45.29c0.42-0.11,0.83-0.25,1.25-0.32c1.28-0.19,2.9-0.65,3.71,0.32c0.93,1.11-0.11,2.74-0.05,4.16
			c0.03,0.61-0.49,0.59-0.92,0.59c-0.72,0.01-1.45-0.07-2.16,0.02c-1.41,0.17-1.97-0.35-1.82-1.79c0.1-1,0.02-2.01,0.02-3.02
			C35.34,45.25,35.31,45.29,35.31,45.29z"/>
		<path class="st12" d="M71.33,44.79c1.72,1.38,0.54,3.18,0.48,4.71c-0.05,1.11-1.54,0.36-2.36,0.53c-0.48,0.1-0.99,0.07-1.48,0.09
			c-2.02-1.09-0.63-2.89-0.81-4.34c-0.14-1.03,1.12-0.85,1.83-0.95C69.75,44.73,70.55,44.8,71.33,44.79z"/>
		<path class="st12" d="M92.8,20.79c0.43,0.04,0.86,0.11,1.29,0.11c1.65,0.01,2.55,0.67,2.23,2.47c-0.06,0.35-0.01,0.72-0.01,1.08
			c-0.05,3.68,0.12,3.06-3.01,2.96c-1.97-0.06-2.66,0.55-2.58,2.52c0.21,5.4,0.28,10.8,0.4,16.21c-0.14,3.79-0.16,3.55-4.08,3.85
			c-2.55,0.19-2.69-0.77-2.68-2.84c0.04-5.86-0.24-11.72-0.25-17.58c0-1.7-0.75-2.07-2.19-2.13c-3.12-0.13-3.11-0.17-3.11-3.31
			c0-0.58,0.06-1.16,0-1.74c-0.14-1.26,0.41-1.59,1.61-1.57C84.55,20.86,88.67,20.81,92.8,20.79z"/>
		<path class="st12" d="M11.64,41.35c1.12-0.07,2.46-0.03,3.44,1.76c0.81,1.49,3.41,1.36,4.39,0.15c1.03-1.26,0.66-3.03-0.85-4.16
			c-0.96-0.72-2.09-0.99-3.22-1.2c-4.34-0.8-6.89-3.61-7.02-7.79c-0.12-3.72,2.75-7.69,6.37-8.65c2.74-0.73,5.45-0.49,8.07,0.62
			c1.46,0.62,2.53,1.67,3.27,3.05c0.86,1.61,1.39,3.76,0.26,4.89c-1.19,1.19-3.44,0.49-5.23,0.37c-0.71-0.05-0.44-0.79-0.64-1.21
			c-0.68-1.42-1.84-2-3.38-1.75c-1.27,0.21-1.87,1.06-1.88,2.29c-0.02,1.67,1.16,2.22,2.53,2.44c2.2,0.36,4.16,1.14,5.8,2.68
			c3.45,3.24,4.1,7.22,1.81,11.41C23.63,49.43,19.4,51,15.3,49.9c-3.27-0.88-6.04-2.45-7.02-6.01c-0.67-2.42-0.55-2.54,2-2.54
			C10.57,41.35,10.86,41.35,11.64,41.35z"/>
		<path class="st12" d="M108.09,47.19c-0.07,2.96-0.07,2.85-3.27,2.89c-2.71,0.03-1.43-1.91-1.62-3.04c-0.4-2.42,1.4-2.1,2.89-2.22
			C108.34,44.63,108.33,46,108.09,47.19z"/>
	</g>
</g>
</svg>
